<svg width="31" height="30" viewBox="0 0 31 30" fill="none" xmlns="http://www.w3.org/2000/svg">
<path d="M27 15C27 8 21 4 18 4V1C24 1 30.5 6 30.5 15C30.5 24 24 29 18 29V26C21 26 27 22 27 15Z" fill="#DAC6A2"/>
<rect x="1" y="9.75977" width="7.29834" height="10.2177" fill="#DAC6A2"/>
<path d="M8.29688 9.75538L15.5952 2.45703V27.2714L8.29688 19.9731V9.75538Z" fill="#DAC6A2"/>
<path d="M23.8387 15.0282C23.8387 19.462 21.2246 23.0564 18 23.0564C18 21.7888 18 19.462 18 15.0282C18 10.5943 18 8.26761 18 7C21.2246 7 23.8387 10.5943 23.8387 15.0282Z" fill="#DAC6A2"/>
</svg>
