# File exported by Houdini 20.0.590 (www.sidefx.com)
# 336 points
# 336 vertices
# 84 primitives
# Bounds: [-120.73851, -6.28999996, -44.7714157] to [-89.1719742, -3.78999996, 39.0495453]
g 
v -90.646019 -3.78999996 -15.0024853
v -89.1719742 -3.78999996 -15.0024853
v -95.8181458 -3.78999996 -15.0024853
v -97.5421906 -3.78999996 -15.0024853
v -99.0162277 -3.78999996 -17.9888496
v -89.1719742 -3.78999996 -19.6070309
v -99.0162277 -3.78999996 -19.6070309
v -89.1719742 -3.78999996 -21.2252121
v -99.0162277 -3.78999996 -24.4615765
v -89.1719742 -3.78999996 -26.0797577
v -99.0162277 -3.78999996 -26.0797577
v -89.1719742 -3.78999996 -27.4479389
v -94.094101 -3.78999996 -27.4479389
v -95.8181458 -3.78999996 -27.4479389
v -90.646019 -5.48999977 -15.0024853
v -89.1719742 -5.48999977 -15.0024853
v -95.8181458 -5.48999977 -15.0024853
v -97.5421906 -5.48999977 -15.0024853
v -99.0162277 -5.48999977 -17.9888496
v -89.1719742 -5.48999977 -19.6070309
v -99.0162277 -5.48999977 -19.6070309
v -89.1719742 -5.48999977 -21.2252121
v -99.0162277 -5.48999977 -24.4615765
v -89.1719742 -5.48999977 -26.0797577
v -99.0162277 -5.48999977 -26.0797577
v -89.1719742 -5.48999977 -27.4479389
v -94.094101 -5.48999977 -27.4479389
v -95.8181458 -5.48999977 -27.4479389
v -89.1719742 -3.78999996 -16.3706665
v -92.3700638 -3.78999996 -15.0024853
v -94.094101 -3.78999996 -15.0024853
v -99.0162277 -3.78999996 -16.3706665
v -99.0162277 -3.78999996 -15.0024853
v -89.1719742 -3.78999996 -17.9888496
v -99.0162277 -3.78999996 -21.2252121
v -89.1719742 -3.78999996 -22.8433933
v -99.0162277 -3.78999996 -22.8433933
v -89.1719742 -3.78999996 -24.4615765
v -90.646019 -3.78999996 -27.4479389
v -92.3700638 -3.78999996 -27.4479389
v -97.5421906 -3.78999996 -27.4479389
v -99.0162277 -3.78999996 -27.4479389
v -89.1719742 -5.48999977 -16.3706665
v -92.3700638 -5.48999977 -15.0024853
v -94.094101 -5.48999977 -15.0024853
v -99.0162277 -5.48999977 -16.3706665
v -99.0162277 -5.48999977 -15.0024853
v -89.1719742 -5.48999977 -17.9888496
v -99.0162277 -5.48999977 -21.2252121
v -89.1719742 -5.48999977 -22.8433933
v -99.0162277 -5.48999977 -22.8433933
v -89.1719742 -5.48999977 -24.4615765
v -90.646019 -5.48999977 -27.4479389
v -92.3700638 -5.48999977 -27.4479389
v -97.5421906 -5.48999977 -27.4479389
v -99.0162277 -5.48999977 -27.4479389
v -90.646019 -3.78999996 9.28061867
v -89.1719742 -3.78999996 9.28061867
v -95.8181458 -3.78999996 9.28061867
v -97.5421906 -3.78999996 9.28061867
v -99.0162277 -3.78999996 12.2669821
v -89.1719742 -3.78999996 13.8851643
v -99.0162277 -3.78999996 13.8851643
v -89.1719742 -3.78999996 15.5033455
v -99.0162277 -3.78999996 18.7397099
v -89.1719742 -3.78999996 20.3578911
v -99.0162277 -3.78999996 20.3578911
v -89.1719742 -3.78999996 21.7260723
v -94.094101 -3.78999996 21.7260723
v -95.8181458 -3.78999996 21.7260723
v -90.646019 -5.48999977 9.28061867
v -89.1719742 -5.48999977 9.28061867
v -95.8181458 -5.48999977 9.28061867
v -97.5421906 -5.48999977 9.28061867
v -99.0162277 -5.48999977 12.2669821
v -89.1719742 -5.48999977 13.8851643
v -99.0162277 -5.48999977 13.8851643
v -89.1719742 -5.48999977 15.5033455
v -99.0162277 -5.48999977 18.7397099
v -89.1719742 -5.48999977 20.3578911
v -99.0162277 -5.48999977 20.3578911
v -89.1719742 -5.48999977 21.7260723
v -94.094101 -5.48999977 21.7260723
v -95.8181458 -5.48999977 21.7260723
v -89.1719742 -3.78999996 10.6487999
v -92.3700638 -3.78999996 9.28061867
v -94.094101 -3.78999996 9.28061867
v -99.0162277 -3.78999996 10.6487999
v -99.0162277 -3.78999996 9.28061867
v -89.1719742 -3.78999996 12.2669821
v -99.0162277 -3.78999996 15.5033455
v -89.1719742 -3.78999996 17.1215267
v -99.0162277 -3.78999996 17.1215267
v -89.1719742 -3.78999996 18.7397099
v -90.646019 -3.78999996 21.7260723
v -92.3700638 -3.78999996 21.7260723
v -97.5421906 -3.78999996 21.7260723
v -99.0162277 -3.78999996 21.7260723
v -89.1719742 -5.48999977 10.6487999
v -92.3700638 -5.48999977 9.28061867
v -94.094101 -5.48999977 9.28061867
v -99.0162277 -5.48999977 10.6487999
v -99.0162277 -5.48999977 9.28061867
v -89.1719742 -5.48999977 12.2669821
v -99.0162277 -5.48999977 15.5033455
v -89.1719742 -5.48999977 17.1215267
v -99.0162277 -5.48999977 17.1215267
v -89.1719742 -5.48999977 18.7397099
v -90.646019 -5.48999977 21.7260723
v -92.3700638 -5.48999977 21.7260723
v -97.5421906 -5.48999977 21.7260723
v -99.0162277 -5.48999977 21.7260723
v -112.368301 -4.58999968 -15.0024853
v -110.894257 -4.58999968 -15.0024853
v -117.540428 -4.58999968 -15.0024853
v -119.264473 -4.58999968 -15.0024853
v -120.73851 -4.58999968 -17.9888496
v -110.894257 -4.58999968 -19.6070309
v -120.73851 -4.58999968 -19.6070309
v -110.894257 -4.58999968 -21.2252121
v -120.73851 -4.58999968 -24.4615765
v -110.894257 -4.58999968 -26.0797577
v -120.73851 -4.58999968 -26.0797577
v -110.894257 -4.58999968 -27.4479389
v -115.816383 -4.58999968 -27.4479389
v -117.540428 -4.58999968 -27.4479389
v -112.368301 -6.28999996 -15.0024853
v -110.894257 -6.28999996 -15.0024853
v -117.540428 -6.28999996 -15.0024853
v -119.264473 -6.28999996 -15.0024853
v -120.73851 -6.28999996 -17.9888496
v -110.894257 -6.28999996 -19.6070309
v -120.73851 -6.28999996 -19.6070309
v -110.894257 -6.28999996 -21.2252121
v -120.73851 -6.28999996 -24.4615765
v -110.894257 -6.28999996 -26.0797577
v -120.73851 -6.28999996 -26.0797577
v -110.894257 -6.28999996 -27.4479389
v -115.816383 -6.28999996 -27.4479389
v -117.540428 -6.28999996 -27.4479389
v -110.894257 -4.58999968 -16.3706665
v -114.092346 -4.58999968 -15.0024853
v -115.816383 -4.58999968 -15.0024853
v -120.73851 -4.58999968 -16.3706665
v -120.73851 -4.58999968 -15.0024853
v -110.894257 -4.58999968 -17.9888496
v -120.73851 -4.58999968 -21.2252121
v -110.894257 -4.58999968 -22.8433933
v -120.73851 -4.58999968 -22.8433933
v -110.894257 -4.58999968 -24.4615765
v -112.368301 -4.58999968 -27.4479389
v -114.092346 -4.58999968 -27.4479389
v -119.264473 -4.58999968 -27.4479389
v -120.73851 -4.58999968 -27.4479389
v -110.894257 -6.28999996 -16.3706665
v -114.092346 -6.28999996 -15.0024853
v -115.816383 -6.28999996 -15.0024853
v -120.73851 -6.28999996 -16.3706665
v -120.73851 -6.28999996 -15.0024853
v -110.894257 -6.28999996 -17.9888496
v -120.73851 -6.28999996 -21.2252121
v -110.894257 -6.28999996 -22.8433933
v -120.73851 -6.28999996 -22.8433933
v -110.894257 -6.28999996 -24.4615765
v -112.368301 -6.28999996 -27.4479389
v -114.092346 -6.28999996 -27.4479389
v -119.264473 -6.28999996 -27.4479389
v -120.73851 -6.28999996 -27.4479389
v -112.368301 -4.58999968 9.28061867
v -110.894257 -4.58999968 9.28061867
v -117.540428 -4.58999968 9.28061867
v -119.264473 -4.58999968 9.28061867
v -120.73851 -4.58999968 12.2669821
v -110.894257 -4.58999968 13.8851643
v -120.73851 -4.58999968 13.8851643
v -110.894257 -4.58999968 15.5033455
v -120.73851 -4.58999968 18.7397099
v -110.894257 -4.58999968 20.3578911
v -120.73851 -4.58999968 20.3578911
v -110.894257 -4.58999968 21.7260723
v -115.816383 -4.58999968 21.7260723
v -117.540428 -4.58999968 21.7260723
v -112.368301 -6.28999996 9.28061867
v -110.894257 -6.28999996 9.28061867
v -117.540428 -6.28999996 9.28061867
v -119.264473 -6.28999996 9.28061867
v -120.73851 -6.28999996 12.2669821
v -110.894257 -6.28999996 13.8851643
v -120.73851 -6.28999996 13.8851643
v -110.894257 -6.28999996 15.5033455
v -120.73851 -6.28999996 18.7397099
v -110.894257 -6.28999996 20.3578911
v -120.73851 -6.28999996 20.3578911
v -110.894257 -6.28999996 21.7260723
v -115.816383 -6.28999996 21.7260723
v -117.540428 -6.28999996 21.7260723
v -110.894257 -4.58999968 10.6487999
v -114.092346 -4.58999968 9.28061867
v -115.816383 -4.58999968 9.28061867
v -120.73851 -4.58999968 10.6487999
v -120.73851 -4.58999968 9.28061867
v -110.894257 -4.58999968 12.2669821
v -120.73851 -4.58999968 15.5033455
v -110.894257 -4.58999968 17.1215267
v -120.73851 -4.58999968 17.1215267
v -110.894257 -4.58999968 18.7397099
v -112.368301 -4.58999968 21.7260723
v -114.092346 -4.58999968 21.7260723
v -119.264473 -4.58999968 21.7260723
v -120.73851 -4.58999968 21.7260723
v -110.894257 -6.28999996 10.6487999
v -114.092346 -6.28999996 9.28061867
v -115.816383 -6.28999996 9.28061867
v -120.73851 -6.28999996 10.6487999
v -120.73851 -6.28999996 9.28061867
v -110.894257 -6.28999996 12.2669821
v -120.73851 -6.28999996 15.5033455
v -110.894257 -6.28999996 17.1215267
v -120.73851 -6.28999996 17.1215267
v -110.894257 -6.28999996 18.7397099
v -112.368301 -6.28999996 21.7260723
v -114.092346 -6.28999996 21.7260723
v -119.264473 -6.28999996 21.7260723
v -120.73851 -6.28999996 21.7260723
v -112.368301 -4.58999968 -32.3259583
v -110.894257 -4.58999968 -32.3259583
v -117.540428 -4.58999968 -32.3259583
v -119.264473 -4.58999968 -32.3259583
v -120.73851 -4.58999968 -35.3123245
v -110.894257 -4.58999968 -36.9305038
v -120.73851 -4.58999968 -36.9305038
v -110.894257 -4.58999968 -38.5486832
v -120.73851 -4.58999968 -41.7850494
v -110.894257 -4.58999968 -43.4032288
v -120.73851 -4.58999968 -43.4032288
v -110.894257 -4.58999968 -44.7714157
v -115.816383 -4.58999968 -44.7714157
v -117.540428 -4.58999968 -44.7714157
v -112.368301 -6.28999996 -32.3259583
v -110.894257 -6.28999996 -32.3259583
v -117.540428 -6.28999996 -32.3259583
v -119.264473 -6.28999996 -32.3259583
v -120.73851 -6.28999996 -35.3123245
v -110.894257 -6.28999996 -36.9305038
v -120.73851 -6.28999996 -36.9305038
v -110.894257 -6.28999996 -38.5486832
v -120.73851 -6.28999996 -41.7850494
v -110.894257 -6.28999996 -43.4032288
v -120.73851 -6.28999996 -43.4032288
v -110.894257 -6.28999996 -44.7714157
v -115.816383 -6.28999996 -44.7714157
v -117.540428 -6.28999996 -44.7714157
v -110.894257 -4.58999968 -33.6941414
v -114.092346 -4.58999968 -32.3259583
v -115.816383 -4.58999968 -32.3259583
v -120.73851 -4.58999968 -33.6941414
v -120.73851 -4.58999968 -32.3259583
v -110.894257 -4.58999968 -35.3123245
v -120.73851 -4.58999968 -38.5486832
v -110.894257 -4.58999968 -40.1668701
v -120.73851 -4.58999968 -40.1668701
v -110.894257 -4.58999968 -41.7850494
v -112.368301 -4.58999968 -44.7714157
v -114.092346 -4.58999968 -44.7714157
v -119.264473 -4.58999968 -44.7714157
v -120.73851 -4.58999968 -44.7714157
v -110.894257 -6.28999996 -33.6941414
v -114.092346 -6.28999996 -32.3259583
v -115.816383 -6.28999996 -32.3259583
v -120.73851 -6.28999996 -33.6941414
v -120.73851 -6.28999996 -32.3259583
v -110.894257 -6.28999996 -35.3123245
v -120.73851 -6.28999996 -38.5486832
v -110.894257 -6.28999996 -40.1668701
v -120.73851 -6.28999996 -40.1668701
v -110.894257 -6.28999996 -41.7850494
v -112.368301 -6.28999996 -44.7714157
v -114.092346 -6.28999996 -44.7714157
v -119.264473 -6.28999996 -44.7714157
v -120.73851 -6.28999996 -44.7714157
v -112.368301 -4.58999968 26.6040936
v -110.894257 -4.58999968 26.6040936
v -117.540428 -4.58999968 26.6040936
v -119.264473 -4.58999968 26.6040936
v -120.73851 -4.58999968 29.590456
v -110.894257 -4.58999968 31.2086391
v -120.73851 -4.58999968 31.2086391
v -110.894257 -4.58999968 32.8268204
v -120.73851 -4.58999968 36.0631866
v -110.894257 -4.58999968 37.681366
v -120.73851 -4.58999968 37.681366
v -110.894257 -4.58999968 39.0495453
v -115.816383 -4.58999968 39.0495453
v -117.540428 -4.58999968 39.0495453
v -112.368301 -6.28999996 26.6040936
v -110.894257 -6.28999996 26.6040936
v -117.540428 -6.28999996 26.6040936
v -119.264473 -6.28999996 26.6040936
v -120.73851 -6.28999996 29.590456
v -110.894257 -6.28999996 31.2086391
v -120.73851 -6.28999996 31.2086391
v -110.894257 -6.28999996 32.8268204
v -120.73851 -6.28999996 36.0631866
v -110.894257 -6.28999996 37.681366
v -120.73851 -6.28999996 37.681366
v -110.894257 -6.28999996 39.0495453
v -115.816383 -6.28999996 39.0495453
v -117.540428 -6.28999996 39.0495453
v -110.894257 -4.58999968 27.9722748
v -114.092346 -4.58999968 26.6040936
v -115.816383 -4.58999968 26.6040936
v -120.73851 -4.58999968 27.9722748
v -120.73851 -4.58999968 26.6040936
v -110.894257 -4.58999968 29.590456
v -120.73851 -4.58999968 32.8268204
v -110.894257 -4.58999968 34.4449997
v -120.73851 -4.58999968 34.4449997
v -110.894257 -4.58999968 36.0631866
v -112.368301 -4.58999968 39.0495453
v -114.092346 -4.58999968 39.0495453
v -119.264473 -4.58999968 39.0495453
v -120.73851 -4.58999968 39.0495453
v -110.894257 -6.28999996 27.9722748
v -114.092346 -6.28999996 26.6040936
v -115.816383 -6.28999996 26.6040936
v -120.73851 -6.28999996 27.9722748
v -120.73851 -6.28999996 26.6040936
v -110.894257 -6.28999996 29.590456
v -120.73851 -6.28999996 32.8268204
v -110.894257 -6.28999996 34.4449997
v -120.73851 -6.28999996 34.4449997
v -110.894257 -6.28999996 36.0631866
v -112.368301 -6.28999996 39.0495453
v -114.092346 -6.28999996 39.0495453
v -119.264473 -6.28999996 39.0495453
v -120.73851 -6.28999996 39.0495453
vt 0 0 0
vt 1 0 0
vt 1 1 0
vt 0 1 0
vn -0 -0 1
vn -0 -0 1
vn 0 0 1
vn -0 -0 1
vn 1 -0 -0
vn 1 -0 -0
vn 1 -0 -0
vn 1 0 0
vn 1 -0 -0
vn 1 -0 -0
vn 1 -0 -0
vn 1 0 0
vn -0 0 -1
vn -0 -0 -1
vn 0 -0 -1
vn -0 -0 -1
vn -1 -0 -0
vn -1 0 -0
vn -1 -0 -0
vn -1 -0 0
vn -1 -0 -0
vn -1 0 -0
vn -1 -0 -0
vn -1 -0 0
vn -0 -0 1
vn -0 -0 1
vn 0 0 1
vn -0 -0 1
vn 1 -0 -0
vn 1 -0 -0
vn 1 -0 -0
vn 1 0 0
vn 1 -0 -0
vn 1 -0 -0
vn 1 -0 -0
vn 1 0 0
vn -0 0 -1
vn -0 -0 -1
vn 0 -0 -1
vn -0 -0 -1
vn -0 0 -1
vn -0 -0 -1
vn 0 -0 -1
vn -0 -0 -1
vn -1 -0 -0
vn -1 0 -0
vn -1 -0 -0
vn -1 -0 0
vn -1 -0 -0
vn -1 0 -0
vn -1 -0 -0
vn -1 -0 0
vn -0 -0 1
vn -0 -0 1
vn 0 0 1
vn -0 -0 1
vn -0 -0 -1
vn -0 0 -1
vn -0 -0 -1
vn 0 -0 -1
vn 1 0 0
vn 1 -0 -0
vn 1 -0 -0
vn 1 -0 -0
vn 1 0 0
vn 1 -0 -0
vn 1 -0 -0
vn 1 -0 -0
vn -0 -0 1
vn -0 -0 1
vn -0 -0 1
vn 0 0 1
vn -1 -0 0
vn -1 -0 -0
vn -1 0 -0
vn -1 -0 -0
vn -1 -0 0
vn -1 -0 -0
vn -1 0 -0
vn -1 -0 -0
vn -0 -0 -1
vn -0 0 -1
vn -0 -0 -1
vn 0 -0 -1
vn 1 0 0
vn 1 -0 -0
vn 1 -0 -0
vn 1 -0 -0
vn 1 0 0
vn 1 -0 -0
vn 1 -0 -0
vn 1 -0 -0
vn -0 -0 1
vn -0 -0 1
vn -0 -0 1
vn 0 0 1
vn -0 -0 1
vn -0 -0 1
vn -0 -0 1
vn 0 0 1
vn -1 -0 0
vn -1 -0 -0
vn -1 0 -0
vn -1 -0 -0
vn -1 -0 0
vn -1 -0 -0
vn -1 0 -0
vn -1 -0 -0
vn -0 -0 -1
vn -0 0 -1
vn -0 -0 -1
vn 0 -0 -1
vn -0 -0 1
vn -0 -0 1
vn 0 0 1
vn -0 -0 1
vn 1 -0 -0
vn 1 -0 -0
vn 1 -0 -0
vn 1 0 0
vn 1 -0 -0
vn 1 -0 -0
vn 1 -0 -0
vn 1 0 0
vn -0 0 -1
vn -0 -0 -1
vn 0 -0 -1
vn -0 -0 -1
vn -1 -0 -0
vn -1 0 -0
vn -1 -0 -0
vn -1 -0 0
vn -1 -0 -0
vn -1 0 -0
vn -1 -0 -0
vn -1 -0 0
vn -0 -0 1
vn -0 -0 1
vn 0 0 1
vn -0 -0 1
vn 1 -0 -0
vn 1 -0 -0
vn 1 -0 -0
vn 1 0 0
vn 1 -0 -0
vn 1 -0 -0
vn 1 -0 -0
vn 1 0 0
vn -0 0 -1
vn -0 -0 -1
vn 0 -0 -1
vn -0 -0 -1
vn -0 0 -1
vn -0 -0 -1
vn 0 -0 -1
vn -0 -0 -1
vn -1 -0 -0
vn -1 0 -0
vn -1 -0 -0
vn -1 -0 0
vn -1 -0 -0
vn -1 0 -0
vn -1 -0 -0
vn -1 -0 0
vn -0 -0 1
vn -0 -0 1
vn 0 0 1
vn -0 -0 1
vn -0 -0 -1
vn -0 0 -1
vn -0 -0 -1
vn 0 -0 -1
vn 1 0 0
vn 1 -0 -0
vn 1 -0 -0
vn 1 -0 -0
vn 1 0 0
vn 1 -0 -0
vn 1 -0 -0
vn 1 -0 -0
vn -0 -0 1
vn -0 -0 1
vn -0 -0 1
vn 0 0 1
vn -1 -0 0
vn -1 -0 -0
vn -1 0 -0
vn -1 -0 -0
vn -1 -0 0
vn -1 -0 -0
vn -1 0 -0
vn -1 -0 -0
vn -0 -0 -1
vn -0 0 -1
vn -0 -0 -1
vn 0 -0 -1
vn 1 0 0
vn 1 -0 -0
vn 1 -0 -0
vn 1 -0 -0
vn 1 0 0
vn 1 -0 -0
vn 1 -0 -0
vn 1 -0 -0
vn -0 -0 1
vn -0 -0 1
vn -0 -0 1
vn 0 0 1
vn -0 -0 1
vn -0 -0 1
vn -0 -0 1
vn 0 0 1
vn -1 -0 0
vn -1 -0 -0
vn -1 0 -0
vn -1 -0 -0
vn -1 -0 0
vn -1 -0 -0
vn -1 0 -0
vn -1 -0 -0
vn -0 -0 -1
vn -0 0 -1
vn -0 -0 -1
vn 0 -0 -1
vn -0 -0 1
vn -0 -0 1
vn 0 0 1
vn -0 -0 1
vn 1 -0 -0
vn 1 -0 -0
vn 1 -0 -0
vn 1 0 0
vn 1 -0 -0
vn 1 -0 -0
vn 1 -0 -0
vn 1 0 0
vn -0 0 -1
vn -0 -0 -1
vn 0 -0 -1
vn -0 -0 -1
vn -1 -0 -0
vn -1 0 -0
vn -1 -0 -0
vn -1 -0 0
vn -1 -0 -0
vn -1 0 -0
vn -1 -0 -0
vn -1 -0 0
vn -0 -0 1
vn -0 -0 1
vn 0 0 1
vn -0 -0 1
vn 1 -0 -0
vn 1 -0 -0
vn 1 -0 -0
vn 1 0 0
vn 1 -0 -0
vn 1 -0 -0
vn 1 -0 -0
vn 1 0 0
vn -0 0 -1
vn -0 -0 -1
vn 0 -0 -1
vn -0 -0 -1
vn -0 0 -1
vn -0 -0 -1
vn 0 -0 -1
vn -0 -0 -1
vn -1 -0 -0
vn -1 0 -0
vn -1 -0 -0
vn -1 -0 0
vn -1 -0 -0
vn -1 0 -0
vn -1 -0 -0
vn -1 -0 0
vn -0 -0 1
vn -0 -0 1
vn 0 0 1
vn -0 -0 1
vn -0 -0 -1
vn -0 0 -1
vn -0 -0 -1
vn 0 -0 -1
vn 1 0 0
vn 1 -0 -0
vn 1 -0 -0
vn 1 -0 -0
vn 1 0 0
vn 1 -0 -0
vn 1 -0 -0
vn 1 -0 -0
vn -0 -0 1
vn -0 -0 1
vn -0 -0 1
vn 0 0 1
vn -1 -0 0
vn -1 -0 -0
vn -1 0 -0
vn -1 -0 -0
vn -1 -0 0
vn -1 -0 -0
vn -1 0 -0
vn -1 -0 -0
vn -0 -0 -1
vn -0 0 -1
vn -0 -0 -1
vn 0 -0 -1
vn 1 0 0
vn 1 -0 -0
vn 1 -0 -0
vn 1 -0 -0
vn 1 0 0
vn 1 -0 -0
vn 1 -0 -0
vn 1 -0 -0
vn -0 -0 1
vn -0 -0 1
vn -0 -0 1
vn 0 0 1
vn -0 -0 1
vn -0 -0 1
vn -0 -0 1
vn 0 0 1
vn -1 -0 0
vn -1 -0 -0
vn -1 0 -0
vn -1 -0 -0
vn -1 -0 0
vn -1 -0 -0
vn -1 0 -0
vn -1 -0 -0
vn -0 -0 -1
vn -0 0 -1
vn -0 -0 -1
vn 0 -0 -1
g wenyang_one
usemtl /obj/geo1/building_final/matnet1/wenyang_one1
f 1/1/1 15/2/2 16/3/3 2/4/4
f 6/1/5 20/2/6 22/3/7 8/4/8
f 10/1/9 24/2/10 26/3/11 12/4/12
f 13/1/13 27/2/14 28/3/15 14/4/16
f 11/1/17 25/2/18 23/3/19 9/4/20
f 7/1/21 21/2/22 19/3/23 5/4/24
f 4/1/25 18/2/26 17/3/27 3/4/28
f 29/1/29 43/2/30 48/3/31 34/4/32
f 36/1/33 50/2/34 52/3/35 38/4/36
f 39/1/37 53/2/38 54/3/39 40/4/40
f 41/1/41 55/2/42 56/3/43 42/4/44
f 37/1/45 51/2/46 49/3/47 35/4/48
f 32/1/49 46/2/50 47/3/51 33/4/52
f 31/1/53 45/2/54 44/3/55 30/4/56
f 57/1/57 58/4/58 72/3/59 71/2/60
f 62/1/61 64/4/62 78/3/63 76/2/64
f 66/1/65 68/4/66 82/3/67 80/2/68
f 69/1/69 70/4/70 84/3/71 83/2/72
f 67/1/73 65/4/74 79/3/75 81/2/76
f 63/1/77 61/4/78 75/3/79 77/2/80
f 60/1/81 59/4/82 73/3/83 74/2/84
f 85/1/85 90/4/86 104/3/87 99/2/88
f 92/1/89 94/4/90 108/3/91 106/2/92
f 95/1/93 96/4/94 110/3/95 109/2/96
f 97/1/97 98/4/98 112/3/99 111/2/100
f 93/1/101 91/4/102 105/3/103 107/2/104
f 88/1/105 89/4/106 103/3/107 102/2/108
f 87/1/109 86/4/110 100/3/111 101/2/112
f 113/1/113 127/2/114 128/3/115 114/4/116
f 118/1/117 132/2/118 134/3/119 120/4/120
f 122/1/121 136/2/122 138/3/123 124/4/124
f 125/1/125 139/2/126 140/3/127 126/4/128
f 123/1/129 137/2/130 135/3/131 121/4/132
f 119/1/133 133/2/134 131/3/135 117/4/136
f 116/1/137 130/2/138 129/3/139 115/4/140
f 141/1/141 155/2/142 160/3/143 146/4/144
f 148/1/145 162/2/146 164/3/147 150/4/148
f 151/1/149 165/2/150 166/3/151 152/4/152
f 153/1/153 167/2/154 168/3/155 154/4/156
f 149/1/157 163/2/158 161/3/159 147/4/160
f 144/1/161 158/2/162 159/3/163 145/4/164
f 143/1/165 157/2/166 156/3/167 142/4/168
f 169/1/169 170/4/170 184/3/171 183/2/172
f 174/1/173 176/4/174 190/3/175 188/2/176
f 178/1/177 180/4/178 194/3/179 192/2/180
f 181/1/181 182/4/182 196/3/183 195/2/184
f 179/1/185 177/4/186 191/3/187 193/2/188
f 175/1/189 173/4/190 187/3/191 189/2/192
f 172/1/193 171/4/194 185/3/195 186/2/196
f 197/1/197 202/4/198 216/3/199 211/2/200
f 204/1/201 206/4/202 220/3/203 218/2/204
f 207/1/205 208/4/206 222/3/207 221/2/208
f 209/1/209 210/4/210 224/3/211 223/2/212
f 205/1/213 203/4/214 217/3/215 219/2/216
f 200/1/217 201/4/218 215/3/219 214/2/220
f 199/1/221 198/4/222 212/3/223 213/2/224
f 225/1/225 239/2/226 240/3/227 226/4/228
f 230/1/229 244/2/230 246/3/231 232/4/232
f 234/1/233 248/2/234 250/3/235 236/4/236
f 237/1/237 251/2/238 252/3/239 238/4/240
f 235/1/241 249/2/242 247/3/243 233/4/244
f 231/1/245 245/2/246 243/3/247 229/4/248
f 228/1/249 242/2/250 241/3/251 227/4/252
f 253/1/253 267/2/254 272/3/255 258/4/256
f 260/1/257 274/2/258 276/3/259 262/4/260
f 263/1/261 277/2/262 278/3/263 264/4/264
f 265/1/265 279/2/266 280/3/267 266/4/268
f 261/1/269 275/2/270 273/3/271 259/4/272
f 256/1/273 270/2/274 271/3/275 257/4/276
f 255/1/277 269/2/278 268/3/279 254/4/280
f 281/1/281 282/4/282 296/3/283 295/2/284
f 286/1/285 288/4/286 302/3/287 300/2/288
f 290/1/289 292/4/290 306/3/291 304/2/292
f 293/1/293 294/4/294 308/3/295 307/2/296
f 291/1/297 289/4/298 303/3/299 305/2/300
f 287/1/301 285/4/302 299/3/303 301/2/304
f 284/1/305 283/4/306 297/3/307 298/2/308
f 309/1/309 314/4/310 328/3/311 323/2/312
f 316/1/313 318/4/314 332/3/315 330/2/316
f 319/1/317 320/4/318 334/3/319 333/2/320
f 321/1/321 322/4/322 336/3/323 335/2/324
f 317/1/325 315/4/326 329/3/327 331/2/328
f 312/1/329 313/4/330 327/3/331 326/2/332
f 311/1/333 310/4/334 324/3/335 325/2/336
